
<?xml version="1.0" encoding="utf-8"?>
<!-- Generator: Adobe Illustrator 19.2.1, SVG Export Plug-In . SVG Version: 6.00 Build 0)  -->
<svg version="1.1" id="layer" xmlns="http://www.w3.org/2000/svg" xmlns:xlink="http://www.w3.org/1999/xlink" x="0px" y="0px"
	 viewBox="0 0 652 652" style="enable-background:new 0 0 652 652;" xml:space="preserve">
<style type="text/css">
	.st0{fill:#15375F;}
	.st1{fill:#FFC717;}
</style>
<path class="st0" d="M309.1,370.4h-18.6c-0.1,0-0.1,0-0.2-0.1l-16.1-19.6l-16.1,19.6c0,0.1-0.1,0.1-0.2,0.1h-14.9
	c-0.1,0-0.2,0-0.2-0.1c0-0.1,0-0.2,0-0.2l23.7-29l-23.4-28.8c-0.1-0.1-0.1-0.2,0-0.3c0-0.1,0.1-0.1,0.2-0.1H262c0,0,0.1,0,0.2,0.1
	l14.1,17.5l14.3-17.5c0-0.1,0.1-0.1,0.2-0.1H306c0.1,0,0.2,0.1,0.2,0.1c0,0.1,0,0.2,0,0.3L284,338.8l25.3,31.2
	c0.1,0.1,0.1,0.2,0,0.2C309.3,370.3,309.2,370.4,309.1,370.4"/>
<path class="st0" d="M410,322.1c-8.2,0-13.9,5-15.5,13.7h28.1v-0.6C422.6,328.3,417.4,322.1,410,322.1 M437.1,344.7
	c-0.1,0.1-0.1,0.1-0.2,0.1h-42.7c0.9,9.9,7.3,15.6,17.8,15.6c6.4,0,13.3-2.2,22.9-7.3c0.2-0.1,0.4,0,0.4,0.2l0,13.1
	c0,0.1-0.1,0.2-0.1,0.2c-9,3.8-18,6.4-25.1,6.4c-18.4,0-31.7-13.4-31.7-31.8c0-18.4,13.3-31.8,31.7-31.8c16.8,0,27.5,11.3,27.5,26.8
	C437.5,338.7,437.1,344.6,437.1,344.7"/>
<path class="st0" d="M523.7,299.7c-5.2,0-9.5-4.2-9.5-9.3c0-5.3,4.3-9.6,9.5-9.6c5.2,0,9.5,4.3,9.5,9.6
	C533.2,295.5,528.9,299.7,523.7,299.7 M516,370.4c-0.2,0-0.2-0.1-0.2-0.2V312c0-0.1,0.1-0.2,0.2-0.2h15.4c0.1,0,0.2,0.1,0.2,0.2
	v58.1c0,0.1-0.1,0.2-0.2,0.2H516z"/>
<path class="st0" d="M337.3,361.6c-2.8,0-5.6-0.4-8.9-1.3l0-37.3c3.8-1.2,7.2-1.8,10.5-1.8c10.7,0,17.8,7.9,17.8,19.6
	C356.7,353.5,349.1,361.6,337.3,361.6 M341.5,309.4c-4.4,0-8.7,0.8-13.3,2.4h-15.3c-0.1,0-0.2,0.1-0.2,0.2v95.3
	c4.6-0.6,10.3-2.3,15.8-6.2v-29c3.8,0.5,6.9,0.9,9.9,0.9c21,0,34.6-12.6,34.6-32.1C372.9,322.4,360,309.4,341.5,309.4"/>
<path class="st0" d="M488,356.8c-4.8,2.5-9.1,3.7-13.1,3.7c-9.5,0-15.2-6.7-15.2-18c0-13,7.3-21.4,18.5-21.4c3.1,0,6.1,0.8,9.8,2.4
	V356.8z M488,281v30.4c-4.5-1.3-8.5-1.9-12.5-1.9c-18.3,0-32.1,13.8-32.1,32.1c0,18.2,12.2,31.4,28.9,31.4c5.8,0,11.2-1.5,17.6-4.7
	l0,5.3c4.2-0.8,9.1-2.5,13.8-5.9v-92.9C499.1,275.4,493.6,277,488,281"/>
<path class="st0" d="M585,356.7c-4.6,2.7-8.6,4-12.2,4c-10.2,0-16.3-6.7-16.3-18c0-12.8,7.2-21.4,17.9-21.4c2.8,0,6.3,1.1,10.6,3.4
	V356.7z M600.8,311.1c0-0.4-0.3-0.6-0.7-0.6l-12.5,0c-0.4,0-0.7,0.3-0.7,0.7v2.1h-0.3c-5.8-2.5-10.7-3.7-15.5-3.7
	c-17.2,0-30.7,14.3-30.7,32.6c0,18.5,12.1,30.9,30.1,30.9c4.8,0,11-0.3,16.7-7v7.5c4.1-0.9,8.9-2.6,13.5-5.9L600.8,311.1z"/>
<path class="st0" d="M200.5,355.8h38.7c-0.6,4.3-2,9.4-5.4,14.5h-33.2h-6.6h-0.4c-4.9,0-9-3.8-9.5-8.6c0-0.1,0-0.1-0.1-0.2v-39.6
	v-36.7c0-0.1,0-0.2,0.1-0.2c0.5-4.8,4.5-8.7,9.5-8.7c0.2,0,0.3,0,0.4,0l45.1,0c-0.6,4.3-2.1,9.5-5.4,14.6h-33.2v20.8h32.8
	c0.2,0,0.2,0.1,0.2,0.2v14.4c0,0.1-0.1,0.2-0.2,0.2h-32.8V355.8z"/>
<path class="st0" d="M152.1,371.6c-3.8,0-6.2-3-6.2-6.6c0-3.9,2.7-6.6,6.2-6.6c3.4,0,6.1,2.7,6.1,6.6
	C158.2,368.8,155.5,371.6,152.1,371.6 M152.1,357.5c-3.9,0-7.3,2.9-7.3,7.4c0,4.2,3,7.4,7.3,7.4c3.9,0,7.2-2.9,7.2-7.4
	C159.3,360.5,155.9,357.5,152.1,357.5"/>
<path class="st0" d="M150.3,364.3v-2.7h1.8c0.9,0,2,0.1,2,1.2c0,1.3-1,1.4-2.1,1.4H150.3z M155.5,363.1c0-1.8-1.1-2.5-3.2-2.5H149
	v8.7h1.4v-3.7h1.3l2.3,3.7h1.6l-2.4-3.8C154.5,365.3,155.5,364.6,155.5,363.1"/>
<path class="st0" d="M613.5,321.4c-3.8,0-6.2-3-6.2-6.7c0-3.9,2.7-6.6,6.2-6.6c3.4,0,6.1,2.7,6.1,6.6
	C619.6,318.7,616.9,321.4,613.5,321.4 M613.5,307.4c-3.9,0-7.3,2.9-7.3,7.4c0,4.2,3,7.4,7.3,7.4c3.9,0,7.2-2.9,7.2-7.4
	C620.7,310.4,617.4,307.4,613.5,307.4"/>
<path class="st0" d="M611.8,314.2v-2.7h1.8c0.9,0,2,0.1,2,1.2c0,1.3-1,1.4-2.1,1.4H611.8z M616.9,312.9c0-1.8-1.1-2.5-3.2-2.5h-3.3
	v8.7h1.4v-3.7h1.3l2.3,3.7h1.6l-2.4-3.8C616,315.2,616.9,314.5,616.9,312.9"/>
<path class="st0" d="M102.2,291l-2.8-7.9l-23.8-31.8l4.3-1.1l41,35.4l24.1-6.9c2.8-0.7,6-0.9,8.5-0.9c-7.6-16.4-21.5-29.8-39.8-36.3
	c-36.2-12.9-76,6-89,42.3c-4,11.2-4.9,22.8-3.3,33.8l57.8-20.1L102.2,291z"/>
<path class="st0" d="M156.1,284.1c-2.1,1.4-5.2,3.2-8.3,4.2l-24.2,6.9L107.4,347l-4.2,1.4l3.4-39.6l-1.9-8.2L82.1,307l-59.9,14.1
	c4.8,23,21.1,43.1,44.9,51.6c36.2,12.9,76.1-6,88.9-42.2C161.5,314.9,161.1,298.6,156.1,284.1"/>
<path class="st1" d="M104.7,300.6l1.9,8.2l-3.4,39.6l4.2-1.4l16.1-51.8l24.2-6.9c3.1-1,6.2-2.8,8.3-4.2c-0.8-2.1-1.6-4.2-2.6-6.3
	c-2.5,0-5.7,0.2-8.5,0.9l-24.1,6.9l-41-35.5l-4.3,1.1L99.4,283l2.8,7.9l-22.8,6.5l-57.8,20.1c0.2,1.2,0.4,2.4,0.6,3.6L82,307.1
	L104.7,300.6z"/>
</svg>
